<svg id="Capa_1" enable-background="new 0 0 512 512" height="512" viewBox="0 0 512 512" width="512" xmlns="http://www.w3.org/2000/svg"><g><g><path d="m489.49 257.021c0 128.95-104.54 233.49-233.49 233.49l-93.106-204.923 93.106-262.057c128.95 0 233.49 104.54 233.49 233.49z" fill="#eae1de"/><path d="m256 23.531v466.98c-128.95 0-233.49-104.54-233.49-233.49s104.54-233.49 233.49-233.49z" fill="#f5f1f0"/></g><g><path d="m115.529 146.869h52.263v248.242h30v-278.242h-82.263z" fill="#5a5a5a"/><g><path d="m357.9 234.2c13.66-12.34 22.27-30.18 22.27-49.99 0-37.13-30.21-67.34-67.34-67.34-23.86 0-44.87 12.48-56.83 31.25l-5.809 35.901 5.809 36.259c3.28 5.15 7.24 9.84 11.76 13.92-4.16 2.54-8.1 5.42-11.76 8.61l-15 64.275 15 66.805c15.24 13.23 35.11 21.24 56.83 21.24 47.86 0 86.79-38.93 86.79-86.79 0-31.36-16.72-58.89-41.72-74.14zm-45.07-87.33c20.59 0 37.34 16.75 37.34 37.34s-16.75 37.34-37.34 37.34-37.34-16.75-37.34-37.34 16.75-37.34 37.34-37.34zm0 218.26c-31.31 0-56.79-25.47-56.79-56.79 0-31.31 25.48-56.79 56.79-56.79s56.79 25.48 56.79 56.79c0 31.32-25.48 56.79-56.79 56.79z" fill="#2d2d2d"/><g fill="#5a5a5a"><path d="m256 242.81v131.08c-18.34-15.93-29.96-39.41-29.96-65.55s11.62-49.62 29.96-65.53z"/><path d="m256 148.12v72.16c-6.65-10.43-10.51-22.81-10.51-36.07 0-13.27 3.86-25.65 10.51-36.09z"/></g></g></g><g><path d="m512 256c0 141.38-114.62 256-256 256l-17.275-15.666 17.275-14.334c124.62 0 226-101.38 226-226 0-56.92-21.15-109-56.02-148.77l-169.98 169.98-11.913-15.259 11.913-27.161 148.77-148.77c-39.77-34.87-91.85-56.02-148.77-56.02l-17.275-15.453 17.275-14.547c141.38 0 256 114.62 256 256z" fill="#ca2e43"/><path d="m30 256c0 56.92 21.15 109 56.02 148.77l169.98-169.98v42.42l-57.49 57.49-91.28 91.28c37.48 32.86 85.88 53.53 138.97 55.8 3.25.15 6.52.22 9.8.22v30c-141.38 0-256-114.62-256-256s114.62-256 256-256v30c-2.41 0-4.82.04-7.21.12-121.3 3.82-218.79 103.67-218.79 225.88z" fill="#ff5b5b"/></g></g></svg>